<?xml version="1.0" encoding="UTF-8"?>
<svg version="1.1" xmlns="http://www.w3.org/2000/svg" width="225" height="225">
<path d="M0 0 C74.25 0 148.5 0 225 0 C225 74.25 225 148.5 225 225 C150.75 225 76.5 225 0 225 C0 150.75 0 76.5 0 0 Z " fill="#FEFDFD" transform="translate(0,0)"/>
<path d="M0 0 C1 3 1 3 0.875 6.1875 C2.68856592 12.33347339 7.85347154 14.54831224 13 18 C21.20650033 24.08046397 28.33885383 32.66397937 30 43 C30.9569082 52.79691726 29.03557067 60.63173402 22.75 68.3125 C16.6327535 74.75444111 9.67466234 78.18540226 1 80 C-0.32 80 -1.64 80 -3 80 C-2.67 81.32 -2.34 82.64 -2 84 C-5.3 83.67 -8.6 83.34 -12 83 C-12 82.01 -12 81.02 -12 80 C-13.2375 79.95875 -14.475 79.9175 -15.75 79.875 C-24.47692685 78.88392944 -32.71605577 74.33733866 -38.6015625 67.86328125 C-44.19931567 60.40482242 -46.29217453 52.23791437 -45 43 C-38.60633493 23.04896484 -19.62472555 10.30031916 -1.94921875 0.99609375 C-1.30597656 0.66738281 -0.66273437 0.33867187 0 0 Z " fill="#FC2909" transform="translate(120,29)"/>
<path d="M0 0 C5.98846021 5.13296589 9.89332168 12.15057024 11 20 C11.89695207 34.11596695 10.36738138 46.14620971 2 58 C9.64609916 48.93795655 14.70568932 39.36558326 14.2265625 27.19140625 C13.69126954 22.01383129 12.70988156 17.41976312 10.375 12.75 C8.93180192 9.86360385 8.71989658 8.17450545 9 5 C12 5 12 5 13.90234375 6.80078125 C20.97554869 15.5302837 24.83628954 23.67695768 24.37890625 35.08203125 C23.24016262 43.85153118 19.13118086 49.83437431 13 56 C19.73560134 50.66449557 25.07243648 44.96759894 26.44140625 36.16015625 C26.8269212 26.2984351 23.7140127 20.38800341 19 12 C18.505 10.515 18.505 10.515 18 9 C18.99 9.33 19.98 9.66 21 10 C23.63804589 9.60602665 23.63804589 9.60602665 26 9 C32.46742533 18.56279735 36.27937224 26.24273104 35 38 C32.81603206 46.8666483 27.71193754 53.705003 20.1875 58.8125 C14.54243153 62.0696935 8.51431233 64 2 64 C2.33 65.32 2.66 66.64 3 68 C-0.3 67.67 -3.6 67.34 -7 67 C-7 66.01 -7 65.02 -7 64 C-7.60328125 63.95101562 -8.2065625 63.90203125 -8.828125 63.8515625 C-9.62734375 63.77679688 -10.4265625 63.70203125 -11.25 63.625 C-12.03890625 63.55539063 -12.8278125 63.48578125 -13.640625 63.4140625 C-16.085877 62.98492887 -17.84836903 62.21399362 -20 61 C-18.68 60.01 -17.36 59.02 -16 58 C-16.53109375 57.5153125 -17.0621875 57.030625 -17.609375 56.53125 C-23.6759687 50.77462824 -28.55403613 44.62206912 -29.23828125 35.99609375 C-29.48327667 24.24920819 -27.00098913 17.00125889 -19.78125 7.8125 C-17.95843923 5.95771009 -16.3818273 5.00287465 -14 4 C-14 4.66 -14 5.32 -14 6 C-14.99 6.66 -15.98 7.32 -17 8 C-16.34 8.33 -15.68 8.66 -15 9 C-15.4894399 12.13241535 -16.23831596 14.52429512 -17.5625 17.4375 C-20.85738541 26.08249638 -19.84403237 35.9118223 -16.34375 44.3125 C-13.95459368 49.09081265 -11.43065304 53.8848083 -8 58 C-7.01 58 -6.02 58 -5 58 C-3.515 58.495 -3.515 58.495 -2 59 C-2 39.86 -2 20.72 -2 1 C-1.34 0.67 -0.68 0.34 0 0 Z " fill="#FC2405" transform="translate(115,45)"/>
<path d="M0 0 C2.35217863 1.27071719 3.53398138 2.51466667 4.69921875 4.91796875 C4.69921875 6.23796875 4.69921875 7.55796875 4.69921875 8.91796875 C1.39921875 8.91796875 -1.90078125 8.91796875 -5.30078125 8.91796875 C-5.63078125 8.25796875 -5.96078125 7.59796875 -6.30078125 6.91796875 C-8.28078125 6.91796875 -10.26078125 6.91796875 -12.30078125 6.91796875 C-12.63078125 7.90796875 -12.96078125 8.89796875 -13.30078125 9.91796875 C-12.49253906 10.02753906 -11.68429688 10.13710937 -10.8515625 10.25 C-9.78292969 10.40855469 -8.71429688 10.56710938 -7.61328125 10.73046875 C-6.02966797 10.95669922 -6.02966797 10.95669922 -4.4140625 11.1875 C-0.86728943 12.01967888 2.08956243 13.30831243 4.69921875 15.91796875 C4.83457031 15.19351563 4.96992187 14.4690625 5.109375 13.72265625 C6.43277408 7.77924722 7.70470757 3.60898955 12.73828125 -0.0546875 C16.244111 -1.89140707 18.7038354 -2.14545003 22.69921875 -2.08203125 C27.69921875 -0.08203125 27.69921875 -0.08203125 29.69921875 1.91796875 C30.02921875 0.92796875 30.35921875 -0.06203125 30.69921875 -1.08203125 C34.32921875 -1.08203125 37.95921875 -1.08203125 41.69921875 -1.08203125 C41.69921875 13.76796875 41.69921875 28.61796875 41.69921875 43.91796875 C38.06921875 43.91796875 34.43921875 43.91796875 30.69921875 43.91796875 C30.20421875 36.49296875 30.20421875 36.49296875 29.69921875 28.91796875 C28.04921875 30.23796875 26.39921875 31.55796875 24.69921875 32.91796875 C20.66425482 33.84517916 16.51968629 33.85984664 12.7890625 31.9296875 C9.97471954 29.69619173 7.94836597 27.29066623 6.69921875 23.91796875 C6.32796875 24.84609375 5.95671875 25.77421875 5.57421875 26.73046875 C3.305708 30.58693703 1.80687083 31.27490792 -2.30078125 32.91796875 C-8.03389943 33.64112343 -14.95222612 34.3608758 -20.05078125 31.16796875 C-22.13357285 29.08517715 -23.40195196 27.70433955 -24.30078125 24.91796875 C-24.30078125 23.92796875 -24.30078125 22.93796875 -24.30078125 21.91796875 C-20.67078125 21.91796875 -17.04078125 21.91796875 -13.30078125 21.91796875 C-12.97078125 22.90796875 -12.64078125 23.89796875 -12.30078125 24.91796875 C-10.32078125 24.91796875 -8.34078125 24.91796875 -6.30078125 24.91796875 C-6.63078125 23.59796875 -6.96078125 22.27796875 -7.30078125 20.91796875 C-8.03683594 20.83160156 -8.77289063 20.74523437 -9.53125 20.65625 C-14.12249469 19.99515929 -17.55508428 19.40047856 -21.48828125 16.85546875 C-23.97492521 12.82539061 -24.35641352 9.53426542 -23.30078125 4.91796875 C-17.07216054 -3.21384162 -9.04203712 -3.78379942 0 0 Z " fill="#FC1A1C" transform="translate(50.30078125,127.08203125)"/>
<path d="M0 0 C3.63 0 7.26 0 11 0 C11 15.84 11 31.68 11 48 C7.04 48 3.08 48 -1 48 C-1.33 47.01 -1.66 46.02 -2 45 C-2.82177734 45.72896484 -2.82177734 45.72896484 -3.66015625 46.47265625 C-7.77274369 49.15716658 -12.26314835 48.61938031 -17 48 C-20.94847453 45.94350285 -22.91916502 43.31121866 -24.49609375 39.12109375 C-26.18533745 32.01055631 -25.61308154 25.32289269 -22 19 C-19.37265845 15.75961208 -17.01295931 14.1465598 -13 13 C-8.34316439 12.51491296 -5.76336348 13.20435856 -2 16 C-1.67 16.66 -1.34 17.32 -1 18 C-0.67 12.06 -0.34 6.12 0 0 Z " fill="#BC065B" transform="translate(188,112)"/>
<path d="M0 0 C1.6640625 1.16796875 1.6640625 1.16796875 3.6640625 4.16796875 C3.89111328 6.98706055 3.89111328 6.98706055 3.859375 10.3671875 C3.85292969 11.57568359 3.84648437 12.78417969 3.83984375 14.02929688 C3.82308594 15.29193359 3.80632812 16.55457031 3.7890625 17.85546875 C3.78003906 19.12970703 3.77101562 20.40394531 3.76171875 21.71679688 C3.73811891 24.86737502 3.70519444 28.01757858 3.6640625 31.16796875 C0.3640625 31.16796875 -2.9359375 31.16796875 -6.3359375 31.16796875 C-6.3359375 30.50796875 -6.3359375 29.84796875 -6.3359375 29.16796875 C-6.9340625 29.66296875 -7.5321875 30.15796875 -8.1484375 30.66796875 C-12.85748833 32.88399267 -17.21786593 32.83654567 -22.3359375 32.16796875 C-25.4609375 30.66796875 -25.4609375 30.66796875 -27.3359375 28.16796875 C-28.64068989 24.21242196 -28.76308286 21.23583215 -27.2109375 17.35546875 C-24.20675212 13.85058581 -21.64823725 12.28335267 -17.00390625 11.875 C-15.28107422 11.92720703 -15.28107422 11.92720703 -13.5234375 11.98046875 C-11.78126953 12.02107422 -11.78126953 12.02107422 -10.00390625 12.0625 C-9.12347656 12.09730469 -8.24304688 12.13210937 -7.3359375 12.16796875 C-7.9959375 10.18796875 -8.6559375 8.20796875 -9.3359375 6.16796875 C-11.3159375 6.16796875 -13.2959375 6.16796875 -15.3359375 6.16796875 C-15.6659375 7.15796875 -15.9959375 8.14796875 -16.3359375 9.16796875 C-19.6359375 9.16796875 -22.9359375 9.16796875 -26.3359375 9.16796875 C-26.03271253 5.83249405 -25.69126927 3.65996658 -23.7109375 0.91796875 C-16.2906306 -4.54962581 -7.75924088 -4.03418699 0 0 Z " fill="#C70351" transform="translate(157.3359375,127.83203125)"/>
<path d="M0 0 C3.63 0 7.26 0 11 0 C11.06058594 1.64871094 11.12117188 3.29742187 11.18359375 4.99609375 C11.26797937 7.143239 11.35262835 9.29037391 11.4375 11.4375 C11.47681641 12.52611328 11.51613281 13.61472656 11.55664062 14.73632812 C11.61948242 16.28803711 11.61948242 16.28803711 11.68359375 17.87109375 C11.72025146 18.82943115 11.75690918 19.78776855 11.79467773 20.77514648 C11.75834424 22.97138925 11.75834424 22.97138925 13 24 C15.32817964 24.36760731 17.6618385 24.70241581 20 25 C20.9731681 22.0804957 21.1929546 19.94555049 21.31640625 16.89453125 C21.35830078 15.91162109 21.40019531 14.92871094 21.44335938 13.91601562 C21.48267578 12.89185547 21.52199219 11.86769531 21.5625 10.8125 C21.60568359 9.77673828 21.64886719 8.74097656 21.69335938 7.67382812 C21.79944263 5.11604298 21.90022586 2.55803902 22 0 C25.63 0 29.26 0 33 0 C33 10.89 33 21.78 33 33 C29.37 33 25.74 33 22 33 C21.67 32.01 21.34 31.02 21 30 C20.566875 30.474375 20.13375 30.94875 19.6875 31.4375 C16.39621238 34.48498854 12.48942635 34.3871461 8.2265625 34.359375 C4.6632224 33.78423941 3.11680114 31.7783015 1 29 C-0.38308781 26.23382437 -0.11210196 23.98982 -0.09765625 20.8984375 C-0.09443359 19.68671875 -0.09121094 18.475 -0.08789062 17.2265625 C-0.07951172 15.95554688 -0.07113281 14.68453125 -0.0625 13.375 C-0.05798828 12.09625 -0.05347656 10.8175 -0.04882812 9.5 C-0.03701203 6.33328708 -0.02053815 3.16666644 0 0 Z " fill="#E60332" transform="translate(95,126)"/>
<path d="M0 0 C2.35217863 1.27071719 3.53398138 2.51466667 4.69921875 4.91796875 C4.69921875 6.23796875 4.69921875 7.55796875 4.69921875 8.91796875 C1.39921875 8.91796875 -1.90078125 8.91796875 -5.30078125 8.91796875 C-5.63078125 8.25796875 -5.96078125 7.59796875 -6.30078125 6.91796875 C-8.28078125 6.91796875 -10.26078125 6.91796875 -12.30078125 6.91796875 C-12.63078125 7.90796875 -12.96078125 8.89796875 -13.30078125 9.91796875 C-12.45773438 10.05074219 -11.6146875 10.18351563 -10.74609375 10.3203125 C-9.65039062 10.49691406 -8.5546875 10.67351562 -7.42578125 10.85546875 C-6.33523437 11.02949219 -5.2446875 11.20351562 -4.12109375 11.3828125 C-1.30078125 11.91796875 -1.30078125 11.91796875 0.69921875 12.91796875 C0.69921875 17.86796875 0.69921875 22.81796875 0.69921875 27.91796875 C2.01921875 28.24796875 3.33921875 28.57796875 4.69921875 28.91796875 C-1.6749472 33.97334175 -8.41923589 33.57853455 -16.30078125 32.91796875 C-19.75545133 31.72521146 -21.63589973 29.91529103 -23.67578125 26.85546875 C-24.30078125 24.91796875 -24.30078125 24.91796875 -24.30078125 21.91796875 C-20.67078125 21.91796875 -17.04078125 21.91796875 -13.30078125 21.91796875 C-12.97078125 22.90796875 -12.64078125 23.89796875 -12.30078125 24.91796875 C-10.32078125 24.91796875 -8.34078125 24.91796875 -6.30078125 24.91796875 C-6.63078125 23.59796875 -6.96078125 22.27796875 -7.30078125 20.91796875 C-8.03683594 20.83160156 -8.77289063 20.74523437 -9.53125 20.65625 C-14.12249469 19.99515929 -17.55508428 19.40047856 -21.48828125 16.85546875 C-23.97492521 12.82539061 -24.35641352 9.53426542 -23.30078125 4.91796875 C-17.07216054 -3.21384162 -9.04203712 -3.78379942 0 0 Z " fill="#FC2807" transform="translate(50.30078125,127.08203125)"/>
<path d="M0 0 C3.63 0 7.26 0 11 0 C11 15.84 11 31.68 11 48 C7.04 48 3.08 48 -1 48 C-1.495 46.515 -1.495 46.515 -2 45 C-2.66 45 -3.32 45 -4 45 C-4 44.34 -4 43.68 -4 43 C-4.66 42.67 -5.32 42.34 -6 42 C-5.34 41.236875 -4.68 40.47375 -4 39.6875 C-0.97930717 35.22584063 -1.50420475 30.17740286 -2 25 C-2.33 24.01 -2.66 23.02 -3 22 C-2.67 21.01 -2.34 20.02 -2 19 C-1.34 19 -0.68 19 0 19 C0 12.73 0 6.46 0 0 Z " fill="#B00763" transform="translate(188,112)"/>
<path d="M0 0 C0 3.55704157 -0.76217667 4.368929 -2.8125 7.1875 C-8.76075217 15.96222661 -10.08079349 23.30260082 -9 34 C-6.90898226 42.35162443 -0.94534085 48.10887199 5 54 C2.36883649 55.23160845 0.84557001 55.89557541 -2 56 C-9.16290377 53.0290944 -15.55770092 46.72815195 -19.09765625 39.875 C-21.86200837 32.67482703 -22.37945111 25.65475264 -19.640625 18.3984375 C-16.7733929 12.10211165 -13.65410876 6.15403909 -8 2 C-5.30172431 1.01079548 -2.85333233 0.49195385 0 0 Z " fill="#FB2C07" transform="translate(96,50)"/>
<path d="M0 0 C3.63 0 7.26 0 11 0 C11 14.85 11 29.7 11 45 C7.37 45 3.74 45 0 45 C-0.04898438 43.85660156 -0.09796875 42.71320313 -0.1484375 41.53515625 C-0.22345189 40.04424527 -0.29900028 38.55336108 -0.375 37.0625 C-0.4059375 36.30775391 -0.436875 35.55300781 -0.46875 34.77539062 C-0.5726315 32.84492605 -0.77895614 30.92057919 -1 29 C-1.66 28.67 -2.32 28.34 -3 28 C-2.690625 27.401875 -2.38125 26.80375 -2.0625 26.1875 C-0.20431739 22.36182992 0.06733238 20.18012145 -0.75 16.0625 C-0.90984375 15.20785156 -1.0696875 14.35320312 -1.234375 13.47265625 C-2.06265345 10.79765492 -3.20429575 9.12623223 -5 7 C-3.35 6.34 -1.7 5.68 0 5 C0 4.34 0 3.68 0 3 C0 2.01 0 1.02 0 0 Z " fill="#F0012A" transform="translate(81,126)"/>
<path d="M0 0 C0.99 0.33 1.98 0.66 3 1 C5.63804589 0.60602665 5.63804589 0.60602665 8 0 C14.46742533 9.56279735 18.27937224 17.24273104 17 29 C14.88814829 37.57386503 9.94112143 44.33851714 2.8125 49.5 C0 51 0 51 -4 51 C-4.495 49.515 -4.495 49.515 -5 48 C-4.48050781 47.53851563 -3.96101562 47.07703125 -3.42578125 46.6015625 C3.6418863 39.99113776 8.12590906 33.62743928 8.75 23.75 C8.47351938 15.72252818 4.85422987 9.85812606 1 3 C0.67 2.01 0.34 1.02 0 0 Z " fill="#FC1B15" transform="translate(133,54)"/>
<path d="M0 0 C3.63 0 7.26 0 11 0 C11 10.89 11 21.78 11 33 C7.37 33 3.74 33 0 33 C-0.495 31.515 -0.495 31.515 -1 30 C-2.32 30.99 -3.64 31.98 -5 33 C-5.33 31.02 -5.66 29.04 -6 27 C-5.360625 26.731875 -4.72125 26.46375 -4.0625 26.1875 C-1.66868314 25.11332248 -1.66868314 25.11332248 -1 22 C-0.85222064 20.30132812 -0.75252934 18.59822511 -0.68359375 16.89453125 C-0.64169922 15.91162109 -0.59980469 14.92871094 -0.55664062 13.91601562 C-0.51732422 12.89185547 -0.47800781 11.86769531 -0.4375 10.8125 C-0.39431641 9.77673828 -0.35113281 8.74097656 -0.30664062 7.67382812 C-0.20055737 5.11604298 -0.09977414 2.55803902 0 0 Z " fill="#D9003E" transform="translate(117,126)"/>
<path d="M0 0 C7.07092049 5.1967006 12.6155596 13.23187745 14 22 C14.86993314 31.69354073 13.47138298 39.79923662 7.4375 47.625 C5 50 5 50 2 50 C2.33 48.35 2.66 46.7 3 45 C2.34 45 1.68 45 1 45 C0.67 45.99 0.34 46.98 0 48 C-1.21970604 44.34088189 -0.63942883 43.56118679 0.875 40.125 C4.92721504 30.85874603 5.00373313 21.63015045 2 12 C1.46375 10.9275 0.9275 9.855 0.375 8.75 C-1.07346538 5.85306925 -1.36436019 4.18815165 -1 1 C-0.67 0.67 -0.34 0.34 0 0 Z " fill="#FD1D0F" transform="translate(125,49)"/>
<path d="M0 0 C1.74216797 0.04060547 1.74216797 0.04060547 3.51953125 0.08203125 C4.39996094 0.11683594 5.28039062 0.15164062 6.1875 0.1875 C5.1975 0.5175 4.2075 0.8475 3.1875 1.1875 C3.1875 2.5075 3.1875 3.8275 3.1875 5.1875 C4.1775 5.1875 5.1675 5.1875 6.1875 5.1875 C6.1875 6.8375 6.1875 8.4875 6.1875 10.1875 C4.2075 11.1775 4.2075 11.1775 2.1875 12.1875 C2.8475 14.4975 3.5075 16.8075 4.1875 19.1875 C0.23690586 21.16279707 -4.50586075 20.61629958 -8.8125 20.1875 C-11.9375 18.6875 -11.9375 18.6875 -13.8125 16.1875 C-15.11725239 12.23195321 -15.23964536 9.2553634 -13.6875 5.375 C-9.66093946 0.67734604 -6.07106343 -0.18397162 0 0 Z " fill="#D0084C" transform="translate(143.8125,139.8125)"/>
<path d="M0 0 C3.14595819 2.73201633 3.91970305 4.35762437 4.4375 8.5 C3.96443474 12.28452212 3.57240651 14.17865092 1 17 C-2.6875 17.8125 -2.6875 17.8125 -6 18 C-8.85841885 14.8012932 -9.40979023 12.69930326 -9.375 8.4375 C-9.38273437 7.48746094 -9.39046875 6.53742188 -9.3984375 5.55859375 C-9 3 -9 3 -7.66015625 1.19140625 C-5.00450704 -0.71441259 -3.16519503 -0.51676653 0 0 Z " fill="#FCF4F4" transform="translate(77,134)"/>
<path d="M0 0 C1.6640625 1.17578125 1.6640625 1.17578125 3 3 C3.82173176 7.84895769 3.90202766 12.47349165 1.375 16.75 C-1 18 -1 18 -4.0625 18.0625 C-7 17 -7 17 -8.875 14.875 C-10.53780124 10.62561906 -10.711913 6.9323353 -9.125 2.625 C-6.79688964 -0.73782607 -3.79056875 -0.30943418 0 0 Z " fill="#FAF4F7" transform="translate(184,134)"/>
<path d="M0 0 C0.33 0 0.66 0 1 0 C1 2.31 1 4.62 1 7 C1.66 7 2.32 7 3 7 C3 8.32 3 9.64 3 11 C4.60517097 10.91266424 6.20921662 10.80447776 7.8125 10.6875 C8.70582031 10.62949219 9.59914062 10.57148438 10.51953125 10.51171875 C13.35672221 9.92640849 14.08136423 9.06407172 16 7 C20.42105263 7.42105263 20.42105263 7.42105263 22 9 C22.04063832 10.66617115 22.042721 12.33388095 22 14 C20.69675781 14.03867188 20.69675781 14.03867188 19.3671875 14.078125 C10.24159149 14.2474248 10.24159149 14.2474248 3 19 C2.40059068 21.85872136 2.10947211 24.14277789 2 27 C1.67826628 29.00189873 1.34951621 31.00276453 1 33 C0.67 33 0.34 33 0 33 C0 22.11 0 11.22 0 0 Z " fill="#F6E4EA" transform="translate(128,126)"/>
<path d="M0 0 C6.83877664 5.6319337 10.95985009 14.27692461 12 23 C13.23514453 36.18279261 7.82191666 46.78029341 0 57 C-0.66 56.67 -1.32 56.34 -2 56 C-1.60167969 55.40574219 -1.20335938 54.81148437 -0.79296875 54.19921875 C6.97493123 42.04651878 8.92138397 29.05491934 6.4609375 14.8984375 C5.09495264 9.92985522 3.00795804 6.14890764 0 2 C0 1.34 0 0.68 0 0 Z " fill="#FAECE9" transform="translate(118,47)"/>
<path d="M0 0 C0.66 0.66 1.32 1.32 2 2 C0.02 2 -1.96 2 -4 2 C-3.67 3.98 -3.34 5.96 -3 8 C-4.98 8.33 -6.96 8.66 -9 9 C-9.33 9.99 -9.66 10.98 -10 12 C-13.3 12 -16.6 12 -20 12 C-19.69677503 8.6645253 -19.35533177 6.49199783 -17.375 3.75 C-12.10189594 -0.13544509 -6.30743085 -0.42762243 0 0 Z " fill="#D0074B" transform="translate(151,125)"/>
<path d="M0 0 C0 3.13894687 -0.41562176 4.08690102 -1.875 6.75 C-7.42284525 17.62928518 -7.1387461 28.64181103 -3.9375 40.26171875 C-3.0501427 42.85354154 -2.01037692 45.19614864 -0.75 47.625 C-0.1725 48.73875 0.405 49.8525 1 51 C0.67 51.66 0.34 52.32 0 53 C-7.88520923 42.35496754 -11.52565313 32.3883846 -10 19 C-8.21757953 11.83026372 -4.29373929 5.92536022 0 0 Z " fill="#FAEAE5" transform="translate(105,48)"/>
<path d="M0 0 C0.33 0 0.66 0 1 0 C1.92124498 8.78855124 2.15647905 17.51871867 2.13037109 26.34521484 C2.12500712 28.49714193 2.13035357 30.6488604 2.13671875 32.80078125 C2.14020528 40.90906456 1.84602208 48.92906495 1 57 C0.67 57 0.34 57 0 57 C-0.74340608 53.67549576 -1.12604565 50.60159034 -1.12939453 47.19726562 C-1.13254669 46.2728064 -1.13569885 45.34834717 -1.13894653 44.39587402 C-1.1369223 43.4092981 -1.13489807 42.42272217 -1.1328125 41.40625 C-1.13376923 40.38196899 -1.13472595 39.35768799 -1.13571167 38.30236816 C-1.13639102 36.14054299 -1.13455381 33.97871576 -1.13037109 31.81689453 C-1.12501943 28.51199757 -1.1303244 25.2072365 -1.13671875 21.90234375 C-1.13605793 19.79947887 -1.13477667 17.69661407 -1.1328125 15.59375 C-1.13483673 14.60717407 -1.13686096 13.62059814 -1.13894653 12.60412598 C-1.13579437 11.67966675 -1.13264221 10.75520752 -1.12939453 9.80273438 C-1.12859894 8.99396851 -1.12780334 8.18520264 -1.12698364 7.35192871 C-0.99048916 4.82384496 -0.55188315 2.46801569 0 0 Z " fill="#FBD0CA" transform="translate(112,45)"/>
<path d="M0 0 C6.63746513 2.66371956 10.26411338 10.21417696 13.4375 16.3125 C16.09681099 22.85671749 16.20982986 30.04157051 14.15234375 36.7734375 C11.32424981 43.00483093 7.07482641 47.49184155 2 52 C1.34 51.67 0.68 51.34 0 51 C0.45890625 50.53851563 0.9178125 50.07703125 1.390625 49.6015625 C7.71690926 42.87656285 11.12565558 36.39695929 11.5 27.0625 C11.11213616 17.30334526 7.63907268 10.0570564 1.390625 2.6796875 C0 1 0 1 0 0 Z " fill="#F9E2DF" transform="translate(127,50)"/>
<path d="M0 0 C0 3.55704157 -0.76217667 4.368929 -2.8125 7.1875 C-8.75351129 15.95154502 -10.10177728 23.31276039 -9 34 C-7.37383062 40.023821 -4.18600093 44.46516566 0 49 C-0.33 49.66 -0.66 50.32 -1 51 C-7.61945638 45.1035425 -12.29897016 39.87842728 -13.375 30.85546875 C-13.84686708 18.18878682 -8.59585281 10.73381596 -1 1 C-0.67 0.67 -0.34 0.34 0 0 Z " fill="#F7DCD4" transform="translate(96,50)"/>
<path d="M0 0 C0.66 0.33 1.32 0.66 2 1 C1.67 1.969375 1.34 2.93875 1 3.9375 C-0.05173363 6.62149574 -0.05173363 6.62149574 0 8 C-1.33640119 11.18680284 -1.98586034 11.99057356 -5 14 C-7.04296875 14.1953125 -7.04296875 14.1953125 -9.1875 14.125 C-11.0746875 14.063125 -11.0746875 14.063125 -13 14 C-12.67 11.03 -12.34 8.06 -12 5 C-10.01432292 5.06510417 -8.02864583 5.13020833 -6.04296875 5.1953125 C-3.68640281 5.13254462 -3.68640281 5.13254462 -1 3 C-0.67 2.01 -0.34 1.02 0 0 Z " fill="#F70F21" transform="translate(80,146)"/>
<path d="M0 0 C0.99 0 1.98 0 3 0 C3.02886751 4.14581887 3.04675327 8.29161216 3.0625 12.4375 C3.07087891 13.62150391 3.07925781 14.80550781 3.08789062 16.02539062 C3.09111328 17.15009766 3.09433594 18.27480469 3.09765625 19.43359375 C3.10289307 20.47572021 3.10812988 21.51784668 3.11352539 22.59155273 C3 25 3 25 2 26 C1.84379445 27.41327947 1.74943827 28.8335459 1.68359375 30.25390625 C1.64169922 31.10791016 1.59980469 31.96191406 1.55664062 32.84179688 C1.51732422 33.73962891 1.47800781 34.63746094 1.4375 35.5625 C1.39431641 36.46419922 1.35113281 37.36589844 1.30664062 38.29492188 C1.20021858 40.52978485 1.09820012 42.76476308 1 45 C0.67 45 0.34 45 0 45 C0 30.15 0 15.3 0 0 Z " fill="#FADFE2" transform="translate(92,126)"/>
<path d="M0 0 C1.98 0 3.96 0 6 0 C6.33 0.99 6.66 1.98 7 3 C10.3 3 13.6 3 17 3 C17.33 2.34 17.66 1.68 18 1 C18.95024979 4.69541586 18.95024979 7.30458414 18 11 C17.0925 10.401875 16.185 9.80375 15.25 9.1875 C10.21081348 6.26788884 4.64216469 5.22293225 -1 4 C-0.67 2.68 -0.34 1.36 0 0 Z " fill="#FBE7E4" transform="translate(38,133)"/>
<path d="M0 0 C-1.32 1.65 -2.64 3.3 -4 5 C-4.33 4.34 -4.66 3.68 -5 3 C-9.455 4.485 -9.455 4.485 -14 6 C-15.4783226 3.04335481 -15.06032783 0.25770263 -15 -3 C-8.88775903 -4.57171911 -5.21740706 -3.42858179 0 0 Z " fill="#F71326" transform="translate(83,130)"/>
<path d="M0 0 C0.33 0 0.66 0 1 0 C1.06058594 0.90363281 1.12117188 1.80726562 1.18359375 2.73828125 C1.26738281 3.91777344 1.35117188 5.09726563 1.4375 6.3125 C1.51871094 7.48425781 1.59992188 8.65601562 1.68359375 9.86328125 C1.8867371 13.02590958 1.8867371 13.02590958 3 16 C1.10174582 23.60697448 -3.33361719 29.83932606 -8 36 C-8.66 35.67 -9.32 35.34 -10 35 C-9.60167969 34.40574219 -9.20335938 33.81148437 -8.79296875 33.19921875 C-1.9656615 22.51805436 -0.53089955 12.54021357 0 0 Z " fill="#F9D2CB" transform="translate(126,68)"/>
<path d="M0 0 C3.75159236 2.42038217 3.75159236 2.42038217 4.75 4.75 C5.09358349 7.84225145 5.05976532 10.89220346 5 14 C3.35 14.33 1.7 14.66 0 15 C-0.19448477 12.87562788 -0.38038289 10.75046809 -0.5625 8.625 C-0.66691406 7.44164062 -0.77132812 6.25828125 -0.87890625 5.0390625 C-1 2 -1 2 0 0 Z " fill="#FD1D0F" transform="translate(51,140)"/>
<path d="M0 0 C1.45922693 0.11409593 2.91740598 0.24165544 4.375 0.375 C5.59316406 0.47941406 5.59316406 0.47941406 6.8359375 0.5859375 C9 1 9 1 11 3 C10.625 5.125 10.625 5.125 10 7 C8.02 7 6.04 7 4 7 C3.67 5.68 3.34 4.36 3 3 C1.68 2.67 0.36 2.34 -1 2 C-0.67 1.34 -0.34 0.68 0 0 Z " fill="#F9EDE8" transform="translate(34,146)"/>
<path d="M0 0 C2.05078125 0.03255208 4.1015625 0.06510417 6.15234375 0.09765625 C5.27734375 4.97265625 5.27734375 4.97265625 4.15234375 6.09765625 C2.15276011 6.13846408 0.15189121 6.14019981 -1.84765625 6.09765625 C-2.22984392 4.44150968 -2.56160727 2.77308601 -2.84765625 1.09765625 C-1.84765625 0.09765625 -1.84765625 0.09765625 0 0 Z " fill="#FCFAFC" transform="translate(143.84765625,145.90234375)"/>
<path d="M0 0 C0.33 1.65 0.66 3.3 1 5 C-1.97 5 -4.94 5 -8 5 C-7.625 2.5625 -7.625 2.5625 -7 0 C-4.3333581 -1.33332095 -2.83319697 -0.67102033 0 0 Z " fill="#F9F2F5" transform="translate(149,134)"/>
<path d="M0 0 C6.37385447 2.52152484 9.87493028 9.68189786 13 15.5 C13.33 16.325 13.66 17.15 14 18 C13 20 13 20 11 21 C10.79246094 20.31035156 10.58492187 19.62070313 10.37109375 18.91015625 C8.28092287 12.5346978 5.72925201 7.8021841 1.390625 2.6796875 C0 1 0 1 0 0 Z " fill="#F8C7C1" transform="translate(127,50)"/>
<path d="M0 0 C0 3.55704157 -0.76217667 4.368929 -2.8125 7.1875 C-5.69186551 11.3397765 -7.43209643 15.20918353 -9 20 C-9.99 20 -10.98 20 -12 20 C-10.74400029 14.55047122 -8.94784844 11.09886302 -5.4375 6.625 C-4.63183594 5.58601563 -3.82617188 4.54703125 -2.99609375 3.4765625 C-1 1 -1 1 0 0 Z " fill="#F7CEC4" transform="translate(96,50)"/>
<path d="M0 0 C3.96 0 7.92 0 12 0 C12 2.31 12 4.62 12 7 C10.948125 6.38125 9.89625 5.7625 8.8125 5.125 C5.94984323 3.48420892 3.10792754 2.13015547 0 1 C0 0.67 0 0.34 0 0 Z " fill="#FAF1EF" transform="translate(44,137)"/>
<path d="M0 0 C2.0625 0.4375 2.0625 0.4375 4 1 C4 2.98 4 4.96 4 7 C2.35 7.33 0.7 7.66 -1 8 C-1.04241723 5.66705225 -1.04092937 3.33297433 -1 1 C-0.67 0.67 -0.34 0.34 0 0 Z " fill="#718388" transform="translate(195,163)"/>
<path d="M0 0 C3.26460973 1.80412643 4.88929795 2.83394693 7 6 C5.35 6.66 3.7 7.32 2 8 C2 7.34 2 6.68 2 6 C1.01 6.33 0.02 6.66 -1 7 C-1.33 5.68 -1.66 4.36 -2 3 C-1.34 2.67 -0.68 2.34 0 2 C0 1.34 0 0.68 0 0 Z " fill="#FC2519" transform="translate(133,48)"/>
<path d="M0 0 C4.53678842 4.01829831 7.45777295 8.4936444 10 14 C10 14.66 10 15.32 10 16 C9.34 16 8.68 16 8 16 C7.67 16.66 7.34 17.32 7 18 C6.82984375 17.34773438 6.6596875 16.69546875 6.484375 16.0234375 C4.97905372 10.59467245 3.29632629 6.54665695 0 2 C0 1.34 0 0.68 0 0 Z " fill="#F7CFC7" transform="translate(118,47)"/>
<path d="M0 0 C0 3.16611388 -0.46280377 4.17751295 -1.9375 6.875 C-3.52462768 9.91465797 -4.57002529 12.56020233 -5 16 C-6.32 16.33 -7.64 16.66 -9 17 C-7.46933687 11.18348012 -4.32262613 4.32262613 0 0 Z " fill="#F8D4CC" transform="translate(105,48)"/>
<path d="M0 0 C0.33 0 0.66 0 1 0 C1.5744234 3.28241941 1.46038244 5.31513357 -0.41796875 8.109375 C-3.35263252 11.5383638 -5.80955347 14.18290372 -10 16 C-9.41992188 15.27296875 -9.41992188 15.27296875 -8.828125 14.53125 C-5.22058046 9.88787584 -2.47597386 5.33286677 0 0 Z " fill="#F7D4CF" transform="translate(137,86)"/>
<path d="M0 0 C0.66 0 1.32 0 2 0 C1.67 3.96 1.34 7.92 1 12 C-1 10 -1 10 -1.23046875 7.87109375 C-1.20919922 6.66646484 -1.20919922 6.66646484 -1.1875 5.4375 C-1.18105469 4.63183594 -1.17460938 3.82617188 -1.16796875 2.99609375 C-1 1 -1 1 0 0 Z " fill="#FBF6F3" transform="translate(84,70)"/>
<path d="M0 0 C0.99 0.33 1.98 0.66 3 1 C3 1.66 3 2.32 3 3 C3.66 3.33 4.32 3.66 5 4 C2.69 4.66 0.38 5.32 -2 6 C-2 3 -2 3 0 0 Z " fill="#F82817" transform="translate(126,102)"/>
<path d="M0 0 C1.65 1.32 3.3 2.64 5 4 C2.69 4.66 0.38 5.32 -2 6 C-2 5.01 -2 4.02 -2 3 C-1.34 2.67 -0.68 2.34 0 2 C0 1.34 0 0.68 0 0 Z " fill="#F93F20" transform="translate(96,100)"/>
<path d="M0 0 C0.99 0.33 1.98 0.66 3 1 C3 4.3 3 7.6 3 11 C1.04783565 7.09567131 0.49360009 4.27786748 0 0 Z " fill="#FA1800" transform="translate(108,83)"/>
</svg>
